<svg width="18" height="19" viewBox="0 0 18 19" fill="none" xmlns="http://www.w3.org/2000/svg">
<path d="M0 19C0 17.0803 0.722447 15.2393 2.00841 13.8819C3.29437 12.5245 5.03852 11.7619 6.85714 11.7619C8.67577 11.7619 10.4199 12.5245 11.7059 13.8819C12.9918 15.2393 13.7143 17.0803 13.7143 19H12C12 17.5603 11.4582 16.1795 10.4937 15.1614C9.52922 14.1434 8.22111 13.5714 6.85714 13.5714C5.49317 13.5714 4.18507 14.1434 3.22059 15.1614C2.25612 16.1795 1.71429 17.5603 1.71429 19H0ZM6.85714 10.8571C4.01571 10.8571 1.71429 8.42786 1.71429 5.42857C1.71429 2.42929 4.01571 0 6.85714 0C9.69857 0 12 2.42929 12 5.42857C12 8.42786 9.69857 10.8571 6.85714 10.8571ZM6.85714 9.04762C8.75143 9.04762 10.2857 7.4281 10.2857 5.42857C10.2857 3.42905 8.75143 1.80952 6.85714 1.80952C4.96286 1.80952 3.42857 3.42905 3.42857 5.42857C3.42857 7.4281 4.96286 9.04762 6.85714 9.04762ZM13.9577 12.398C15.1623 12.9706 16.1846 13.8983 16.9016 15.0695C17.6187 16.2406 18.0001 17.6055 18 19H16.2857C16.2859 17.9541 15.9999 16.9304 15.4621 16.0519C14.9242 15.1735 14.1575 14.4777 13.254 14.0482L13.9569 12.398H13.9577ZM13.368 2.18319C14.2316 2.55894 14.97 3.19701 15.4894 4.01645C16.0089 4.83588 16.2861 5.79974 16.2857 6.78571C16.2861 8.02735 15.8466 9.22425 15.0536 10.1413C14.2606 11.0584 13.1714 11.6293 12 11.742V9.92071C12.6351 9.8247 13.2243 9.5163 13.6811 9.0408C14.1379 8.56529 14.4383 7.94772 14.5381 7.27875C14.638 6.60978 14.532 5.92465 14.2358 5.32394C13.9395 4.72323 13.4687 4.23858 12.8923 3.94114L13.368 2.18319Z" fill="black"/>
</svg>
