<svg width="18" height="19" viewBox="0 0 18 19" fill="none" xmlns="http://www.w3.org/2000/svg">
<path d="M10.125 11.4H5.625C5.32663 11.4 5.04048 11.5001 4.8295 11.6782C4.61853 11.8564 4.5 12.098 4.5 12.35C4.5 12.602 4.61853 12.8436 4.8295 13.0218C5.04048 13.1999 5.32663 13.3 5.625 13.3H10.125C10.4234 13.3 10.7095 13.1999 10.9205 13.0218C11.1315 12.8436 11.25 12.602 11.25 12.35C11.25 12.098 11.1315 11.8564 10.9205 11.6782C10.7095 11.5001 10.4234 11.4 10.125 11.4ZM14.625 1.9H13.2975C13.0654 1.34563 12.6359 0.865448 12.0679 0.525292C11.5 0.185135 10.8213 0.00165254 10.125 0H7.875C7.17869 0.00165254 6.50002 0.185135 5.93205 0.525292C5.36408 0.865448 4.9346 1.34563 4.7025 1.9H3.375C2.47989 1.9 1.62145 2.20027 0.988515 2.73475C0.355579 3.26922 0 3.99413 0 4.75V16.15C0 16.9059 0.355579 17.6308 0.988515 18.1653C1.62145 18.6997 2.47989 19 3.375 19H14.625C15.5201 19 16.3786 18.6997 17.0115 18.1653C17.6444 17.6308 18 16.9059 18 16.15V4.75C18 3.99413 17.6444 3.26922 17.0115 2.73475C16.3786 2.20027 15.5201 1.9 14.625 1.9ZM6.75 2.85C6.75 2.59804 6.86853 2.35641 7.0795 2.17825C7.29048 2.00009 7.57663 1.9 7.875 1.9H10.125C10.4234 1.9 10.7095 2.00009 10.9205 2.17825C11.1315 2.35641 11.25 2.59804 11.25 2.85V3.8H6.75V2.85ZM15.75 16.15C15.75 16.402 15.6315 16.6436 15.4205 16.8218C15.2095 16.9999 14.9234 17.1 14.625 17.1H3.375C3.07663 17.1 2.79048 16.9999 2.5795 16.8218C2.36853 16.6436 2.25 16.402 2.25 16.15V4.75C2.25 4.49804 2.36853 4.25641 2.5795 4.07825C2.79048 3.90009 3.07663 3.8 3.375 3.8H4.5V4.75C4.5 5.00196 4.61853 5.24359 4.8295 5.42175C5.04048 5.59991 5.32663 5.7 5.625 5.7H12.375C12.6734 5.7 12.9595 5.59991 13.1705 5.42175C13.3815 5.24359 13.5 5.00196 13.5 4.75V3.8H14.625C14.9234 3.8 15.2095 3.90009 15.4205 4.07825C15.6315 4.25641 15.75 4.49804 15.75 4.75V16.15ZM12.375 7.6H5.625C5.32663 7.6 5.04048 7.70009 4.8295 7.87825C4.61853 8.05641 4.5 8.29804 4.5 8.55C4.5 8.80196 4.61853 9.04359 4.8295 9.22175C5.04048 9.39991 5.32663 9.5 5.625 9.5H12.375C12.6734 9.5 12.9595 9.39991 13.1705 9.22175C13.3815 9.04359 13.5 8.80196 13.5 8.55C13.5 8.29804 13.3815 8.05641 13.1705 7.87825C12.9595 7.70009 12.6734 7.6 12.375 7.6Z" fill="black"/>
</svg>
