<svg width="18" height="20" viewBox="0 0 18 20" fill="none" xmlns="http://www.w3.org/2000/svg">
<path d="M17 6.2159L11 1.22487C10.45 0.758069 9.73796 0.5 9.00003 0.5C8.2621 0.5 7.55006 0.758069 7.00005 1.22487L1.00009 6.2159C0.682458 6.48544 0.428992 6.81611 0.256565 7.18587C0.0841379 7.55563 -0.00329254 7.956 9.47934e-05 8.36033V16.6534C9.47934e-05 17.4084 0.316163 18.1324 0.878768 18.6663C1.44137 19.2001 2.20443 19.5 3.00007 19.5H15C15.7956 19.5 16.5587 19.2001 17.1213 18.6663C17.6839 18.1324 18 17.4084 18 16.6534V8.35084C18.0019 7.94811 17.9138 7.54956 17.7414 7.18154C17.5691 6.81351 17.3163 6.48438 17 6.2159ZM11 17.6023H7.00005V12.8579C7.00005 12.6063 7.1054 12.3649 7.29294 12.187C7.48047 12.0091 7.73482 11.9091 8.00004 11.9091H10C10.2652 11.9091 10.5196 12.0091 10.7071 12.187C10.8947 12.3649 11 12.6063 11 12.8579V17.6023ZM16 16.6534C16 16.9051 15.8946 17.1464 15.7071 17.3244C15.5196 17.5023 15.2652 17.6023 15 17.6023H13V12.8579C13 12.103 12.6839 11.3789 12.1213 10.8451C11.5587 10.3113 10.7957 10.0114 10 10.0114H8.00004C7.20439 10.0114 6.44134 10.3113 5.87873 10.8451C5.31613 11.3789 5.00006 12.103 5.00006 12.8579V17.6023H3.00007C2.73486 17.6023 2.48051 17.5023 2.29297 17.3244C2.10544 17.1464 2.00008 16.9051 2.00008 16.6534V8.35084C2.00026 8.21612 2.03067 8.08297 2.0893 7.96027C2.14792 7.83756 2.23341 7.72811 2.34008 7.63919L8.34004 2.65765C8.52252 2.50553 8.75712 2.42164 9.00003 2.42164C9.24294 2.42164 9.47754 2.50553 9.66003 2.65765L15.66 7.63919C15.7667 7.72811 15.8521 7.83756 15.9108 7.96027C15.9694 8.08297 15.9998 8.21612 16 8.35084V16.6534Z" fill="black"/>
</svg>
