<svg width="18" height="19" viewBox="0 0 18 19" fill="none" xmlns="http://www.w3.org/2000/svg">
<path d="M17 5.7159L11 0.724868C10.45 0.258069 9.73796 0 9.00003 0C8.2621 0 7.55006 0.258069 7.00005 0.724868L1.00009 5.7159C0.682458 5.98544 0.428992 6.31611 0.256565 6.68587C0.0841379 7.05563 -0.00329254 7.456 9.47934e-05 7.86033V16.1534C9.47934e-05 16.9084 0.316163 17.6324 0.878768 18.1663C1.44137 18.7001 2.20443 19 3.00007 19H15C15.7956 19 16.5587 18.7001 17.1213 18.1663C17.6839 17.6324 18 16.9084 18 16.1534V7.85084C18.0019 7.44811 17.9138 7.04956 17.7414 6.68154C17.5691 6.31351 17.3163 5.98438 17 5.7159ZM11 17.1023H7.00005V12.3579C7.00005 12.1063 7.1054 11.8649 7.29294 11.687C7.48047 11.5091 7.73482 11.4091 8.00004 11.4091H10C10.2652 11.4091 10.5196 11.5091 10.7071 11.687C10.8947 11.8649 11 12.1063 11 12.3579V17.1023ZM16 16.1534C16 16.4051 15.8946 16.6464 15.7071 16.8244C15.5196 17.0023 15.2652 17.1023 15 17.1023H13V12.3579C13 11.603 12.6839 10.8789 12.1213 10.3451C11.5587 9.81126 10.7957 9.51135 10 9.51135H8.00004C7.20439 9.51135 6.44134 9.81126 5.87873 10.3451C5.31613 10.8789 5.00006 11.603 5.00006 12.3579V17.1023H3.00007C2.73486 17.1023 2.48051 17.0023 2.29297 16.8244C2.10544 16.6464 2.00008 16.4051 2.00008 16.1534V7.85084C2.00026 7.71612 2.03067 7.58297 2.0893 7.46027C2.14792 7.33756 2.23341 7.22811 2.34008 7.13919L8.34004 2.15765C8.52252 2.00553 8.75712 1.92164 9.00003 1.92164C9.24294 1.92164 9.47754 2.00553 9.66003 2.15765L15.66 7.13919C15.7667 7.22811 15.8521 7.33756 15.9108 7.46027C15.9694 7.58297 15.9998 7.71612 16 7.85084V16.1534Z" fill="white"/>
</svg>
