<svg width="18" height="19" viewBox="0 0 18 19" fill="none" xmlns="http://www.w3.org/2000/svg">
<path d="M8.52372 17.095H2.84124C2.59006 17.095 2.34916 16.995 2.17155 16.8169C1.99394 16.6388 1.89416 16.3972 1.89416 16.1453V2.84917C1.89416 2.59729 1.99394 2.35573 2.17155 2.17762C2.34916 1.99951 2.59006 1.89945 2.84124 1.89945H7.57664V4.74862C7.57664 5.50427 7.87598 6.22897 8.40881 6.76329C8.94165 7.29762 9.66433 7.5978 10.4179 7.5978H13.2591V12.3464C13.2591 12.5983 13.3589 12.8399 13.5365 13.018C13.7141 13.1961 13.955 13.2961 14.2062 13.2961C14.4574 13.2961 14.6983 13.1961 14.8759 13.018C15.0535 12.8399 15.1533 12.5983 15.1533 12.3464V6.64807C15.1533 6.64807 15.1533 6.64807 15.1533 6.59109C15.1434 6.50384 15.1244 6.41789 15.0964 6.33466V6.24919C15.0509 6.15154 14.9902 6.06177 14.9165 5.98327L9.23402 0.284917C9.15573 0.211044 9.06622 0.150133 8.96884 0.10447C8.93751 0.0989702 8.90547 0.0989702 8.87413 0.10447C8.78204 0.0550869 8.68307 0.0198701 8.58054 0H2.84124C2.0877 0 1.36502 0.30018 0.832179 0.834504C0.299344 1.36883 0 2.09353 0 2.84917V16.1453C0 16.901 0.299344 17.6257 0.832179 18.16C1.36502 18.6943 2.0877 18.9945 2.84124 18.9945H8.52372C8.7749 18.9945 9.01579 18.8944 9.1934 18.7163C9.37101 18.5382 9.47079 18.2967 9.47079 18.0448C9.47079 17.7929 9.37101 17.5513 9.1934 17.3732C9.01579 17.1951 8.7749 17.095 8.52372 17.095ZM9.47079 3.23856L11.9237 5.69835H10.4179C10.1667 5.69835 9.9258 5.59829 9.74819 5.42018C9.57058 5.24207 9.47079 5.00051 9.47079 4.74862V3.23856ZM4.7354 11.3967H10.4179C10.6691 11.3967 10.9099 11.2966 11.0876 11.1185C11.2652 10.9404 11.365 10.6989 11.365 10.447C11.365 10.1951 11.2652 9.95352 11.0876 9.77541C10.9099 9.59731 10.6691 9.49725 10.4179 9.49725H4.7354C4.48422 9.49725 4.24332 9.59731 4.06571 9.77541C3.8881 9.95352 3.78832 10.1951 3.78832 10.447C3.78832 10.6989 3.8881 10.9404 4.06571 11.1185C4.24332 11.2966 4.48422 11.3967 4.7354 11.3967ZM8.52372 13.2961H4.7354C4.48422 13.2961 4.24332 13.3962 4.06571 13.5743C3.8881 13.7524 3.78832 13.994 3.78832 14.2459C3.78832 14.4978 3.8881 14.7393 4.06571 14.9174C4.24332 15.0955 4.48422 15.1956 4.7354 15.1956H8.52372C8.7749 15.1956 9.01579 15.0955 9.1934 14.9174C9.37101 14.7393 9.47079 14.4978 9.47079 14.2459C9.47079 13.994 9.37101 13.7524 9.1934 13.5743C9.01579 13.3962 8.7749 13.2961 8.52372 13.2961ZM4.7354 7.5978H5.68248C5.93366 7.5978 6.17455 7.49774 6.35216 7.31963C6.52977 7.14152 6.62956 6.89996 6.62956 6.64807C6.62956 6.39619 6.52977 6.15462 6.35216 5.97652C6.17455 5.79841 5.93366 5.69835 5.68248 5.69835H4.7354C4.48422 5.69835 4.24332 5.79841 4.06571 5.97652C3.8881 6.15462 3.78832 6.39619 3.78832 6.64807C3.78832 6.89996 3.8881 7.14152 4.06571 7.31963C4.24332 7.49774 4.48422 7.5978 4.7354 7.5978ZM17.7199 13.5716C17.6318 13.4826 17.5271 13.4119 17.4117 13.3637C17.2962 13.3155 17.1725 13.2906 17.0474 13.2906C16.9224 13.2906 16.7986 13.3155 16.6832 13.3637C16.5678 13.4119 16.463 13.4826 16.375 13.5716L13.2591 16.7057L12.0374 15.471C11.9491 15.3825 11.8442 15.3122 11.7289 15.2643C11.6135 15.2164 11.4898 15.1917 11.365 15.1917C11.2401 15.1917 11.1164 15.2164 11.001 15.2643C10.8857 15.3122 10.7808 15.3825 10.6925 15.471C10.6042 15.5596 10.5342 15.6647 10.4864 15.7804C10.4386 15.8961 10.414 16.0201 10.414 16.1453C10.414 16.2705 10.4386 16.3946 10.4864 16.5103C10.5342 16.6259 10.6042 16.7311 10.6925 16.8196L12.5867 18.7191C12.6747 18.8081 12.7795 18.8787 12.8949 18.927C13.0103 18.9752 13.1341 19 13.2591 19C13.3841 19 13.5079 18.9752 13.6233 18.927C13.7387 18.8787 13.8435 18.8081 13.9315 18.7191L17.7199 14.9202C17.8086 14.8319 17.8791 14.7268 17.9272 14.6111C17.9752 14.4954 18 14.3712 18 14.2459C18 14.1205 17.9752 13.9964 17.9272 13.8806C17.8791 13.7649 17.8086 13.6599 17.7199 13.5716Z" fill="black"/>
</svg>
