<svg width="18" height="19" viewBox="0 0 18 19" fill="none" xmlns="http://www.w3.org/2000/svg">
<path d="M17 19H1C0.734784 19 0.48043 18.8999 0.292893 18.7218C0.105357 18.5436 0 18.302 0 18.05V0.95C0 0.698044 0.105357 0.456408 0.292893 0.278249C0.48043 0.100089 0.734784 0 1 0H17C17.2652 0 17.5196 0.100089 17.7071 0.278249C17.8946 0.456408 18 0.698044 18 0.95V18.05C18 18.302 17.8946 18.5436 17.7071 18.7218C17.5196 18.8999 17.2652 19 17 19ZM16 17.1V1.9H2V17.1H16ZM5 6.65H13V8.55H5V6.65ZM5 10.45H13V12.35H5V10.45Z" fill="black"/>
</svg>
