<svg width="22" height="23" viewBox="0 0 22 23" fill="none" xmlns="http://www.w3.org/2000/svg">
<path d="M20.9371 22.8082C21.5063 23.3999 22.3848 22.4866 21.8156 21.9077L17.1753 17.0707C18.803 15.1984 19.7028 12.7636 19.6996 10.2399C19.6996 4.59251 15.2821 0 9.84982 0C4.41757 0 0 4.59251 0 10.2399C0 15.8872 4.41757 20.4797 9.84982 20.4797C12.2999 20.4797 14.5644 19.5407 16.2968 17.9841L20.9371 22.8082ZM1.23618 10.2399C1.23618 5.30004 5.10928 1.28642 9.84858 1.28642C14.6003 1.28642 18.461 5.30004 18.461 10.2399C18.461 15.1797 14.6003 19.1933 9.84858 19.1933C5.10928 19.1933 1.23618 15.1797 1.23618 10.2399Z" fill="#FEFEFE"/>
</svg>
