<svg width="2" height="13" viewBox="0 0 2 13" fill="none" xmlns="http://www.w3.org/2000/svg">
<path d="M1 0.556152C0.45 0.556152 0 1.00615 0 1.55615C0 2.10615 0.45 2.55615 1 2.55615C1.55 2.55615 2 2.10615 2 1.55615C2 1.00615 1.55 0.556152 1 0.556152ZM1 10.5562C0.45 10.5562 0 11.0062 0 11.5562C0 12.1062 0.45 12.5562 1 12.5562C1.55 12.5562 2 12.1062 2 11.5562C2 11.0062 1.55 10.5562 1 10.5562ZM1 5.55615C0.45 5.55615 0 6.00615 0 6.55615C0 7.10615 0.45 7.55615 1 7.55615C1.55 7.55615 2 7.10615 2 6.55615C2 6.00615 1.55 5.55615 1 5.55615Z" fill="black"/>
</svg>
